Format                                   : AVI
Format/Info                              : Audio Video Interleave
File size                                : 688 MiB
Duration                                 : 2h 39mn
Overall bit rate                         : 601 Kbps

Video
ID                                       : 0
Format                                   : MPEG-4 Visual
Format profile                           : Advanced Simple@L5
Format settings, BVOP                    : 2
Format settings, QPel                    : Yes
Format settings, GMC                     : 3 warppoints
Format settings, Matrix                  : Default (H.263)
Codec ID                                 : XVID
Codec ID/Hint                            : XviD
Duration                                 : 2h 39mn
Bit rate                                 : 499 Kbps
Width                                    : 640 pixels
Height                                   : 272 pixels
Display aspect ratio                     : 2.40:1
Frame rate                               : 23.976 fps
Color space                              : YUV
Chroma subsampling                       : 4:2:0
Bit depth                                : 8 bits
Scan type                                : Progressive
Compression mode                         : Lossy
Bits/(Pixel*Frame)                       : 0.120
Stream size                              : 571 MiB (83%)
Writing library                          : XviD 1.2.1 (UTC 2008-12-04)

Audio
ID                                       : 1
Format                                   : MPEG Audio
Format version                           : Version 1
Format profile                           : Layer 3
Mode                                     : Joint stereo
Mode extension                           : MS Stereo
Codec ID                                 : 55
Codec ID/Hint                            : MP3
Duration                                 : 2h 39mn
Bit rate mode                            : Constant
Bit rate                                 : 96.0 Kbps
Channel(s)                               : 2 channels
Sampling rate                            : 32.0 KHz
Compression mode                         : Lossy
Stream size                              : 110 MiB (16%)

 
http://www.shotpix.com/images/94199389858014993676.png
 
http://www.shotpix.com/images/01901582506376453031.png
 
http://www.shotpix.com/images/72260800373020779252.png
 
http://www.shotpix.com/images/00872888635554938315.png
 
http://www.shotpix.com/images/02876966483829710615.png
 
http://www.shotpix.com/images/54985343185676004017.png
 
http://www.shotpix.com/images/54127543404781056989.png
 
http://www.shotpix.com/images/77400208515922710214.png
 
http://www.shotpix.com/images/94289222094921913106.png



                                Check the Sample First